<svg xmlns="http://www.w3.org/2000/svg" viewBox="0 0 222.407 186.166"><path d="M70.73 177.72l-3.38-.777-9.526-73.403c-.59-4.546-6.513-5.908-9.03-2.077L8.157 163.329l-2.921-.672a4.276 4.276 0 1 0-1.917 8.336l65.494 15.063a4.276 4.276 0 1 0 1.917-8.336z" fill="#c3c3e1"/><path d="M191.195 145.887L42.685 161.89a8.483 8.483 0 0 1-9.344-7.526L22.589 54.582a8.483 8.483 0 0 1 7.526-9.344l148.51-16.003a8.483 8.483 0 0 1 9.343 7.526l10.752 99.782a8.484 8.484 0 0 1-7.525 9.344z" fill="#e1dfdd"/><path d="M184.738 30.978l-19.484 117.704 9.901-1.067 14.996-90.593-2.183-20.261a8.453 8.453 0 0 0-3.23-5.783z" fill="#b3afab"/><circle cx="110.654" cy="95.562" r="15.983" fill="#fff"/><path d="M188.946 45.836l-165.38 17.82-.977-9.074a8.483 8.483 0 0 1 7.526-9.344l148.51-16.003a8.483 8.483 0 0 1 9.343 7.526l.978 9.075z" fill="#c3c3e1"/><path d="M109.736 85.013a1.656 1.656 0 0 1 .99.798c.108.195.173.395.194.6l1.235 11.455a1.57 1.57 0 0 1-.362 1.19 1.78 1.78 0 0 1-.498.422 1.546 1.546 0 0 1-.6.2 1.518 1.518 0 0 1-1.191-.376 1.52 1.52 0 0 1-.622-1.084l-1.234-11.455a1.5 1.5 0 0 1 .069-.627c.067-.215.17-.407.306-.577a1.565 1.565 0 0 1 1.713-.546zm1.927 16.385a2.146 2.146 0 0 1 1.225.986 1.9 1.9 0 0 1 .167 1.547 2.138 2.138 0 0 1-.987 1.225 1.899 1.899 0 0 1-1.547.167 2.152 2.152 0 0 1-1.224-.987 1.9 1.9 0 0 1-.167-1.546 2.15 2.15 0 0 1 .376-.707 2.16 2.16 0 0 1 .61-.518 1.894 1.894 0 0 1 1.547-.167z" fill="#e3646a"/><circle cx="55.423" cy="51.368" r="3.08" fill="#e1dfdd"/><circle cx="44.334" cy="52.563" r="3.08" fill="#f3f2f1"/><circle cx="33.244" cy="53.758" r="3.08" fill="#fff"/><path d="M175.158 147.612l-4.94 29.84a4.802 4.802 0 0 1-5.52 3.95 4.812 4.812 0 0 1-3.95-5.52l4.5-27.2 9.91-1.07z" fill="#c8c6c4"/><circle cx="192.212" cy="30.276" r="30.193" fill="#ee8f94"/><circle cx="192.212" cy="30.276" r="24.111" fill="#fff"/><path d="M206.792 30.536l-11.684-12.202c-.773-.807-2.136-.33-2.237.783l-.303 3.334-14.577-1.324-1.416 15.586 14.578 1.324-.303 3.334c-.101 1.117 1.162 1.83 2.066 1.167l13.706-10.052a1.302 1.302 0 0 0 .17-1.95z" fill="#ee8f94"/><path d="M41.164 26.882c0 .339-.043.67-.12.981a4.113 4.113 0 0 1-1.102 1.963 4.116 4.116 0 0 1-2.937 1.221H23.322a4.163 4.163 0 0 1-2.937-7.11 4.116 4.116 0 0 1 2.937-1.22h13.683a4.155 4.155 0 0 1 4.152 4.066.466.466 0 0 1 .007.099z" fill="#fff"/><path d="M41.164 26.515c0 .091 0 .176-.007.268a7.84 7.84 0 0 1-.113 1.08 4.113 4.113 0 0 1-1.102 1.963 4.116 4.116 0 0 1-2.937 1.221h-9.122a7.384 7.384 0 0 1-1.546-4.532c0-1.391.381-2.69 1.052-3.799a7.393 7.393 0 0 1 6.361-3.615 7.412 7.412 0 0 1 7.414 7.414zM81.825 9.562c0 .119 0 .228-.008.346a9.571 9.571 0 0 1-.143 1.392 5.29 5.29 0 0 1-1.425 2.53 5.285 5.285 0 0 1-3.787 1.576H63.577a4.971 4.971 0 0 1-3.507-8.491 4.918 4.918 0 0 1 3.507-1.46H79.92c.354 0 .7.035 1.029.11a9.46 9.46 0 0 1 .876 3.997z" fill="#fff"/><path d="M64.396 9.562c0 .119 0 .228.008.346.017.472.06.936.144 1.392a5.29 5.29 0 0 0 1.425 2.53 5.285 5.285 0 0 0 3.786 1.576h12.885a4.971 4.971 0 0 0 3.508-8.491 4.918 4.918 0 0 0-3.508-1.46H66.302c-.355 0-.7.035-1.03.11a9.461 9.461 0 0 0-.876 3.997z" fill="#fff"/><path d="M81.825 9.562c0 .119 0 .228-.008.346a9.571 9.571 0 0 1-.143 1.392 5.29 5.29 0 0 1-1.425 2.53 5.285 5.285 0 0 1-3.787 1.576H64.707a9.521 9.521 0 0 1-1.998-5.844c0-1.475.329-2.866.936-4.106a8.7 8.7 0 0 1 .422-.793C65.737 1.872 68.78 0 72.27 0a9.536 9.536 0 0 1 8.678 5.565 9.462 9.462 0 0 1 .876 3.997z" fill="#fff"/><path d="M65.088 159.482l-22.4 2.41c-4.66.5-8.84-2.87-9.35-7.53l-2.72-25.23 18.18-27.67c2.51-3.83 8.44-2.47 9.03 2.08l7.26 55.94z" opacity=".4" fill="#c3c3e1"/></svg>